<!DOCTYPE svg PUBLIC "-//W3C//DTD SVG 1.1//EN" "http://www.w3.org/Graphics/SVG/1.1/DTD/svg11.dtd">
<!-- Uploaded to: SVG Repo, www.svgrepo.com, Transformed by: SVG Repo Mixer Tools -->
<svg version="1.1" id="Layer_1" xmlns="http://www.w3.org/2000/svg" xmlns:xlink="http://www.w3.org/1999/xlink" viewBox="0 0 512 512" xml:space="preserve" width="800px" height="800px" fill="#000000">
<g id="SVGRepo_bgCarrier" stroke-width="0"/>
<g id="SVGRepo_tracerCarrier" stroke-linecap="round" stroke-linejoin="round"/>
<g id="SVGRepo_iconCarrier"> <rect x="27.444" y="41.856" style="fill:#000000000000000000;" width="19.377" height="230.241"/> <path style="fill:#0000000000000000000000;" d="M61.214,51.545H13.052c-5.351,0-9.689-4.338-9.689-9.689s4.338-9.689,9.689-9.689h48.162 c5.351,0,9.689,4.338,9.689,9.689S66.565,51.545,61.214,51.545z"/> <path style="fill:#00000000000000000000;" d="M37.133,254.295h23.769v17.543c0,8.061,3.268,15.347,8.539,20.63 c5.284,5.271,12.569,8.539,20.63,8.539h73.388h13.81h40.744h66.8h40.731h66.8h0.013h40.731h40.473c22,0,38.716,20.088,34.388,41.661 C488.611,439.245,403.338,512,301.065,512c-75.106,0-141.054-39.258-178.426-98.372c-7.312-11.549-17.375-20.785-29.027-27.128 c-11.652-6.356-24.88-9.805-38.561-9.805c-11.226,0-21.393-4.56-28.743-11.911c-1.537-1.537-3.049-3.759-4.457-6.227 c-5.012-8.836-7.454-18.899-7.454-29.066v-75.197L37.133,254.295L37.133,254.295z"/> <g style="opacity:0.25;"> <path style="fill:#000000000000000;" d="M473.563,301.007h-21.104c-0.021,0.107-0.034,0.216-0.056,0.323 c-19.339,96.576-104.612,169.332-206.885,169.332c-34.707,0-67.45-8.398-96.33-23.25C187.558,487.219,241.414,512,301.066,512 c102.273,0,187.546-72.755,206.885-169.332C512.277,321.095,495.561,301.007,473.563,301.007z"/> </g> <g> <rect x="403.035" y="26.33" style="fill:#000000000000000000;" width="19.377" height="101.356"/> <rect x="187.96" y="31.475" style="fill:#000000000000000000;" width="19.377" height="91.073"/> <rect x="295.491" y="23.343" style="fill:#000000000000000000;" width="19.377" height="107.324"/> </g> <g> <polygon style="fill:#0000000000000000000000;" points="433.089,0 433.089,39.233 412.718,39.233 392.358,39.233 392.358,0 "/> <polygon style="fill:#0000000000000000000000;" points="325.545,0 325.545,39.233 305.186,39.233 284.814,39.233 284.814,0 "/> <polygon style="fill:#0000000000000000000000;" points="218.015,0 218.015,39.233 197.642,39.233 177.27,39.233 177.27,0 "/> <path style="fill:#0000000000000000000000;" d="M433.09,229.556V112.13h-20.372h-20.359v117.426H376.87v34.22h15.489v37.23v20.127 c0,11.252,9.12,20.359,20.359,20.359c5.632,0,10.722-2.274,14.404-5.955c3.682-3.695,5.968-8.784,5.968-14.404v-20.127v-37.23 h15.476v-34.22H433.09z"/> <path style="fill:#0000000000000000000000;" d="M218.015,229.556V112.13h-20.372h-20.372v117.426h-15.476v34.22h15.476v37.23v20.127 c0,11.252,9.12,20.359,20.372,20.359c5.619,0,10.722-2.274,14.404-5.955c3.695-3.695,5.968-8.784,5.968-14.404v-20.127v-37.23 h15.476v-34.22H218.015z"/> <path style="fill:#0000000000000000000000;" d="M325.546,229.556V112.13h-20.359h-20.372v117.426h-15.476v34.22h15.476v37.23v20.127 c0,11.252,9.12,20.359,20.372,20.359c5.619,0,10.709-2.274,14.391-5.955c3.695-3.695,5.968-8.784,5.968-14.404v-20.127v-37.23 h15.489v-34.22H325.546z"/> </g> <g> <path style="fill:#000000000000000000;" d="M197.642,147.19c-0.633,0-1.266-0.065-1.899-0.194c-0.607-0.116-1.227-0.31-1.809-0.543 c-0.581-0.245-1.15-0.543-1.666-0.891c-0.53-0.362-1.033-0.762-1.473-1.214c-0.452-0.439-0.853-0.943-1.214-1.473 c-0.349-0.517-0.646-1.085-0.891-1.666c-0.233-0.581-0.426-1.201-0.543-1.809c-0.129-0.633-0.194-1.266-0.194-1.899 c0-0.633,0.065-1.266,0.194-1.886c0.116-0.62,0.31-1.24,0.543-1.821c0.245-0.581,0.543-1.15,0.891-1.666 c0.362-0.53,0.762-1.033,1.214-1.473c0.439-0.452,0.943-0.853,1.473-1.214c0.517-0.349,1.085-0.646,1.666-0.891 c0.581-0.233,1.201-0.426,1.809-0.543c1.253-0.258,2.545-0.258,3.798,0c0.607,0.116,1.227,0.31,1.809,0.543 c0.581,0.245,1.15,0.543,1.666,0.891c0.543,0.362,1.033,0.762,1.473,1.214c0.452,0.439,0.853,0.943,1.214,1.473 c0.349,0.517,0.646,1.085,0.891,1.666c0.233,0.581,0.426,1.201,0.543,1.821c0.129,0.62,0.194,1.253,0.194,1.886 c0,2.545-1.033,5.051-2.842,6.847c-0.439,0.452-0.93,0.853-1.473,1.214c-0.517,0.349-1.085,0.646-1.666,0.891 c-0.581,0.233-1.201,0.426-1.809,0.543C198.908,147.125,198.276,147.19,197.642,147.19z"/> <path style="fill:#000000000000000000;" d="M305.174,147.19c-0.62,0-1.266-0.065-1.886-0.194c-0.62-0.116-1.227-0.31-1.809-0.543 c-0.594-0.245-1.15-0.543-1.679-0.891c-0.53-0.362-1.021-0.762-1.473-1.214c-0.439-0.439-0.853-0.943-1.201-1.473 c-0.349-0.517-0.646-1.085-0.891-1.666c-0.245-0.581-0.426-1.201-0.555-1.809c-0.116-0.633-0.181-1.266-0.181-1.899 c0-0.633,0.065-1.266,0.181-1.886c0.129-0.62,0.31-1.24,0.555-1.821c0.245-0.581,0.543-1.15,0.891-1.666 c0.349-0.53,0.762-1.033,1.201-1.473c0.452-0.452,0.943-0.853,1.473-1.214c0.53-0.349,1.085-0.646,1.679-0.891 c0.581-0.233,1.188-0.426,1.809-0.543c1.253-0.258,2.532-0.258,3.785,0c0.62,0.116,1.227,0.31,1.809,0.543 c0.594,0.245,1.15,0.543,1.679,0.891c0.53,0.362,1.021,0.762,1.473,1.214c0.439,0.439,0.853,0.943,1.201,1.473 c0.349,0.517,0.646,1.085,0.891,1.666c0.245,0.581,0.426,1.201,0.555,1.821c0.129,0.62,0.181,1.253,0.181,1.886 c0,2.545-1.033,5.051-2.829,6.847c-0.452,0.452-0.943,0.853-1.473,1.214c-0.53,0.349-1.085,0.646-1.679,0.891 c-0.581,0.233-1.188,0.426-1.809,0.543C306.452,147.125,305.806,147.19,305.174,147.19z"/> <path style="fill:#000000000000000000;" d="M412.73,147.19c-0.633,0-1.279-0.065-1.899-0.194c-0.62-0.116-1.227-0.31-1.809-0.543 c-0.594-0.245-1.15-0.543-1.679-0.891c-0.53-0.362-1.021-0.762-1.473-1.214c-1.796-1.796-2.842-4.302-2.842-6.847 c0-0.633,0.065-1.266,0.194-1.886c0.129-0.62,0.31-1.24,0.555-1.821s0.543-1.15,0.891-1.666c0.349-0.53,0.762-1.033,1.201-1.473 c0.452-0.452,0.943-0.853,1.473-1.214c0.53-0.349,1.085-0.646,1.679-0.891c0.581-0.233,1.189-0.426,1.809-0.543 c1.253-0.258,2.532-0.258,3.785,0c0.62,0.116,1.227,0.31,1.809,0.543c0.594,0.245,1.15,0.543,1.679,0.891 c0.53,0.362,1.021,0.762,1.473,1.214c0.439,0.439,0.853,0.943,1.201,1.473c0.349,0.517,0.646,1.085,0.891,1.666 c0.245,0.581,0.426,1.201,0.555,1.821c0.129,0.62,0.194,1.253,0.194,1.886c0,0.633-0.065,1.266-0.194,1.899 c-0.129,0.607-0.31,1.227-0.555,1.809c-0.245,0.581-0.543,1.15-0.891,1.666c-0.349,0.53-0.762,1.033-1.201,1.473 c-0.452,0.452-0.943,0.853-1.473,1.214c-0.53,0.349-1.085,0.646-1.679,0.891c-0.581,0.233-1.188,0.426-1.809,0.543 C413.996,147.125,413.35,147.19,412.73,147.19z"/> </g> <g> <path style="fill:#0000000000000000000000;" d="M215.083,83.793h-34.878c-5.351,0-9.689-4.338-9.689-9.689c0-5.351,4.338-9.689,9.689-9.689h34.878 c5.351,0,9.689,4.338,9.689,9.689C224.771,79.455,220.433,83.793,215.083,83.793z"/> <path style="fill:#0000000000000000000000;" d="M322.62,83.793h-34.878c-5.351,0-9.689-4.338-9.689-9.689c0-5.351,4.338-9.689,9.689-9.689h34.878 c5.351,0,9.689,4.338,9.689,9.689C332.309,79.455,327.971,83.793,322.62,83.793z"/> <path style="fill:#0000000000000000000000;" d="M430.16,83.793h-34.878c-5.351,0-9.689-4.338-9.689-9.689c0-5.351,4.338-9.689,9.689-9.689h34.878 c5.351,0,9.689,4.338,9.689,9.689C439.849,79.455,435.511,83.793,430.16,83.793z"/> </g> </g>
</svg>